<svg xmlns="http://www.w3.org/2000/svg" width="22" height="21" viewBox="0 0 22 21" fill="none"><path d="M21.7764 4.81078C21.728 5.03424 21.6884 5.2611 21.6302 5.48201C21.36 6.5016 20.7552 7.30453 19.9074 7.94602C18.8509 8.75235 17.6748 9.3828 16.4739 9.96652C14.1189 11.1119 11.6821 12.0703 9.20736 12.9454C8.94325 13.0397 8.69323 13.0202 8.48546 12.8205C8.39513 12.7381 8.33324 12.6309 8.3082 12.5134C8.28316 12.3959 8.29617 12.2738 8.34548 12.1637C9.4477 9.26639 10.6494 6.41154 12.2235 3.71556C12.7033 2.89309 13.2262 2.09611 13.8962 1.40279C14.6204 0.639337 15.6057 0.153629 16.6711 0.0348361C16.7117 0.026473 16.7514 0.0148196 16.79 0H17.6765C17.7142 0.0155856 17.7534 0.0275388 17.7936 0.0356857C18.6929 0.141747 19.5384 0.506342 20.2202 1.08212C20.902 1.65789 21.3887 2.41824 21.617 3.26439C21.6804 3.4921 21.7209 3.72491 21.772 3.95517L21.7764 4.81078ZM9.99794 11.3523C10.1291 11.3073 10.1943 11.2869 10.2576 11.2673C10.7665 11.0719 11.2771 10.8791 11.7833 10.6785C13.7272 9.90789 15.6473 9.08882 17.4687 8.07092C18.2118 7.65629 18.939 7.21532 19.5517 6.6265C19.8576 6.3324 20.1 5.98274 20.2651 5.59772C20.4303 5.21269 20.5147 4.79992 20.5136 4.38322C20.5126 3.96652 20.426 3.55416 20.2589 3.16992C20.0919 2.78568 19.8476 2.43719 19.5403 2.14454C18.2479 0.910836 16.1552 0.914234 14.9025 2.18533C14.4944 2.60522 14.1286 3.06155 13.8099 3.54818C12.7931 5.07757 12.0078 6.72081 11.2665 8.3836C10.8369 9.34796 10.4381 10.3234 9.99794 11.3523Z" fill="white"></path><path d="M21.7764 17.398C21.729 17.6223 21.6902 17.8501 21.6325 18.0708C21.0017 20.3756 18.6373 21.567 16.3512 20.7348C15.6265 20.472 14.9837 20.0515 14.328 19.6547C13.5145 19.1606 12.7114 18.6402 11.8627 18.2145C10.6563 17.6083 9.3569 17.4497 8.02043 17.6206C7.65938 17.6661 7.37933 17.4997 7.28713 17.1922C7.19493 16.8847 7.33022 16.579 7.65593 16.4169C9.51287 15.4734 11.387 14.5668 13.3568 13.8861C14.776 13.3964 16.2202 13.0302 17.729 13.0013C18.7024 12.9759 19.6506 13.3174 20.3912 13.9601C21.1317 14.6028 21.6122 15.5013 21.7402 16.4826C21.7488 16.5227 21.7609 16.562 21.7764 16.6V17.398ZM10.5228 16.3976L10.534 16.4572C11.3062 16.6008 12.0514 16.8669 12.7425 17.2456C13.6438 17.7528 14.5175 18.3109 15.4025 18.8487C15.935 19.172 16.4718 19.4812 17.0767 19.6477C18.558 20.0541 20.047 19.2096 20.4433 17.7292C20.5361 17.3805 20.5603 17.0166 20.5145 16.6584C20.4687 16.3002 20.3538 15.9547 20.1764 15.6417C19.999 15.3287 19.7626 15.0544 19.4808 14.8345C19.1989 14.6145 18.8771 14.4533 18.5339 14.36C17.8928 14.1848 17.2474 14.2724 16.6071 14.36C15.2017 14.5554 13.8644 15.0048 12.552 15.5339C11.8704 15.8098 11.1957 16.1103 10.5228 16.4003V16.3976Z" fill="white"></path><path d="M4.57114 0C4.84314 0.0614343 5.1242 0.105061 5.38714 0.187864C7.24218 0.763921 8.39909 2.48052 8.28847 4.41525C8.17514 6.40252 7.60847 8.27671 6.8378 10.0912C6.19498 11.6048 5.46511 13.081 4.76698 14.5706C4.59924 14.9267 4.281 15.0701 3.95097 14.9677C3.62095 14.8653 3.46047 14.5831 3.51033 14.2082C3.75151 12.4124 3.30905 10.7661 2.377 9.23027C1.85023 8.36396 1.289 7.51546 0.776731 6.64291C0.28985 5.82112 -0.0156971 4.94056 0.000622929 3.97186C0.0341696 2.01308 1.57823 0.305391 3.55567 0.0418465C3.60518 0.0321049 3.65372 0.018102 3.70073 0H4.57114ZM4.72255 11.644C4.76426 11.6031 4.77876 11.5959 4.7842 11.5835C5.56394 9.9016 6.2793 8.19479 6.69727 6.38471C6.89764 5.51662 7.04906 4.63962 6.96927 3.74393C6.86772 2.65058 6.03359 1.69612 4.92927 1.38628C4.38869 1.23552 3.81472 1.24565 3.28001 1.4154C2.7453 1.58514 2.27389 1.90687 1.92548 2.33984C1.20014 3.27293 1.1258 4.29862 1.59545 5.33677C1.89925 5.98082 2.25014 6.60243 2.64537 7.19671C3.53481 8.5821 4.40249 9.97283 4.72255 11.644Z" fill="white"></path></svg>