<svg xmlns="http://www.w3.org/2000/svg" width="23" height="21" viewBox="0 0 23 21" fill="none"><path d="M22.1813 4.81078C22.1329 5.03424 22.0933 5.2611 22.0352 5.48201C21.7649 6.5016 21.1601 7.30453 20.3123 7.94602C19.2558 8.75235 18.0797 9.3828 16.8788 9.96652C14.5238 11.1119 12.087 12.0703 9.61227 12.9454C9.34816 13.0397 9.09814 13.0202 8.89037 12.8205C8.80003 12.7381 8.73815 12.6309 8.7131 12.5134C8.68806 12.3959 8.70108 12.2738 8.75039 12.1637C9.85261 9.26639 11.0543 6.41154 12.6284 3.71556C13.1082 2.89309 13.6312 2.09611 14.3011 1.40279C15.0253 0.639337 16.0106 0.153629 17.076 0.0348361C17.1166 0.026473 17.1564 0.0148196 17.1949 0H18.0814C18.1191 0.0155856 18.1584 0.0275388 18.1985 0.0356857C19.0978 0.141747 19.9433 0.506342 20.6251 1.08212C21.3069 1.65789 21.7936 2.41824 22.0219 3.26439C22.0853 3.4921 22.1258 3.72491 22.1769 3.95517L22.1813 4.81078ZM10.4028 11.3523C10.534 11.3073 10.5992 11.2869 10.6626 11.2673C11.1714 11.0719 11.682 10.8791 12.1882 10.6785C14.1321 9.90789 16.0522 9.08882 17.8737 8.07092C18.6167 7.65629 19.3439 7.21532 19.9566 6.6265C20.2625 6.3324 20.5049 5.98274 20.6701 5.59772C20.8352 5.21269 20.9196 4.79992 20.9186 4.38322C20.9175 3.96652 20.8309 3.55416 20.6639 3.16992C20.4968 2.78568 20.2525 2.43719 19.9452 2.14454C18.6528 0.910836 16.5601 0.914234 15.3074 2.18533C14.8993 2.60522 14.5335 3.06155 14.2148 3.54818C13.198 5.07757 12.4127 6.72081 11.6715 8.3836C11.2418 9.34796 10.843 10.3234 10.4028 11.3523Z" fill="#3F5768"></path><path d="M22.1813 17.398C22.1339 17.6223 22.0951 17.8501 22.0374 18.0708C21.4066 20.3756 19.0422 21.567 16.7561 20.7348C16.0314 20.472 15.3886 20.0515 14.7329 19.6547C13.9194 19.1606 13.1163 18.6402 12.2676 18.2145C11.0612 17.6083 9.76181 17.4497 8.42533 17.6206C8.06429 17.6661 7.78424 17.4997 7.69204 17.1922C7.59984 16.8847 7.73512 16.579 8.06084 16.4169C9.91777 15.4734 11.7919 14.5668 13.7618 13.8861C15.1809 13.3964 16.6251 13.0302 18.1339 13.0013C19.1073 12.9759 20.0555 13.3174 20.7961 13.9601C21.5366 14.6028 22.0171 15.5013 22.1451 16.4826C22.1537 16.5227 22.1659 16.562 22.1813 16.6V17.398ZM10.9277 16.3976L10.9389 16.4572C11.7111 16.6008 12.4563 16.8669 13.1474 17.2456C14.0487 17.7528 14.9224 18.3109 15.8074 18.8487C16.3399 19.172 16.8767 19.4812 17.4816 19.6477C18.9629 20.0541 20.4519 19.2096 20.8483 17.7292C20.941 17.3805 20.9652 17.0166 20.9194 16.6584C20.8736 16.3002 20.7587 15.9547 20.5813 15.6417C20.4039 15.3287 20.1675 15.0544 19.8857 14.8345C19.6038 14.6145 19.282 14.4533 18.9388 14.36C18.2977 14.1848 17.6523 14.2724 17.012 14.36C15.6066 14.5554 14.2693 15.0048 12.9569 15.5339C12.2753 15.8098 11.6006 16.1103 10.9277 16.4003V16.3976Z" fill="#3F5768"></path><path d="M4.97604 0C5.24804 0.0614343 5.52911 0.105061 5.79204 0.187864C7.64709 0.763921 8.80399 2.48052 8.69338 4.41525C8.58005 6.40252 8.01338 8.27671 7.24271 10.0912C6.59988 11.6048 5.87002 13.081 5.17188 14.5706C5.00415 14.9267 4.68591 15.0701 4.35588 14.9677C4.02585 14.8653 3.86537 14.5831 3.91524 14.2082C4.15641 12.4124 3.71396 10.7661 2.78191 9.23027C2.25513 8.36396 1.69391 7.51546 1.18164 6.64291C0.694757 5.82112 0.38921 4.94056 0.40553 3.97186C0.439077 2.01308 1.98313 0.305391 3.96057 0.0418465C4.01009 0.0321049 4.05863 0.018102 4.10564 0H4.97604ZM5.12746 11.644C5.16916 11.6031 5.18367 11.5959 5.18911 11.5835C5.96884 9.9016 6.68421 8.19479 7.10218 6.38471C7.30255 5.51662 7.45397 4.63962 7.37418 3.74393C7.27263 2.65058 6.4385 1.69612 5.33418 1.38628C4.7936 1.23552 4.21962 1.24565 3.68491 1.4154C3.1502 1.58514 2.6788 1.90687 2.33039 2.33984C1.60505 3.27293 1.5307 4.29862 2.00036 5.33677C2.30416 5.98082 2.65505 6.60243 3.05028 7.19671C3.93972 8.5821 4.8074 9.97283 5.12746 11.644Z" fill="#3F5768"></path></svg>