<svg xmlns="http://www.w3.org/2000/svg" width="13" height="12" viewBox="0 0 13 12" fill="none"><path d="M6.00361 11.0689C4.36263 11.0689 4.16918 11.061 3.52879 11.0352C3.0294 11.0201 2.53648 10.9267 2.07125 10.759C1.2663 10.4708 0.629806 9.88501 0.316857 9.14434C0.141623 8.71476 0.0471069 8.26089 0.0373558 7.80215C0 7.21421 0 7.0215 0 5.52343C0 4.00939 0.00867189 3.83264 0.0373558 3.24655C0.0473202 2.78842 0.141833 2.33519 0.316857 1.9062C0.629466 1.16454 1.267 0.578224 2.07325 0.2909C2.53929 0.129004 3.03206 0.0418211 3.53013 0.0331406C4.16718 0 4.37663 0 6.00361 0C7.65794 0 7.84806 0.00797828 8.47844 0.0331406C8.9778 0.0418962 9.47186 0.12907 9.93932 0.2909C10.7453 0.57855 11.3827 1.16475 11.6957 1.9062C11.8739 2.34144 11.9689 2.80176 11.9765 3.2668C12.0139 3.85474 12.0139 4.04683 12.0139 5.54429C12.0139 7.04176 12.0046 7.23814 11.9765 7.81933C11.9666 8.27851 11.8719 8.7328 11.6964 9.16275C11.3826 9.90394 10.7452 10.49 9.93932 10.778C9.47253 10.939 8.97948 11.0259 8.48111 11.0352C7.84406 11.0689 7.63526 11.0689 6.00361 11.0689ZM5.98093 0.971509C4.34928 0.971509 4.17985 0.978874 3.5428 1.00526C3.16256 1.0099 2.786 1.07445 2.42946 1.19613C1.90298 1.38148 1.48638 1.7632 1.28277 2.24681C1.1495 2.5784 1.07932 2.92863 1.07531 3.28214C1.03996 3.87683 1.03996 4.03271 1.03996 5.52343C1.03996 6.99634 1.04596 7.17493 1.07531 7.76594C1.08129 8.11588 1.15142 8.46238 1.28277 8.79084C1.48668 9.27413 1.90321 9.65556 2.42946 9.84091C2.78575 9.96339 3.16247 10.028 3.5428 10.0318C4.18852 10.0661 4.35862 10.0661 5.98093 10.0661C7.61725 10.0661 7.78669 10.0588 8.4184 10.0318C8.7989 10.0275 9.17575 9.96294 9.5324 9.84091C10.0557 9.65396 10.4696 9.2734 10.6731 8.79207C10.8061 8.4602 10.8763 8.10981 10.8805 7.75612H10.8879C10.9166 7.16941 10.9166 7.01291 10.9166 5.51361C10.9166 4.0143 10.9092 3.85658 10.8805 3.27048C10.8746 2.92094 10.8044 2.57484 10.6731 2.24681C10.4701 1.76478 10.0561 1.38349 9.5324 1.19613C9.17582 1.07384 8.79892 1.00927 8.4184 1.00526C7.77335 0.971509 7.60458 0.971509 5.98093 0.971509ZM6.00361 8.35817C4.75619 8.35892 3.63113 7.66819 3.15314 6.60814C2.67515 5.54808 2.93837 4.3275 3.82005 3.51564C4.70173 2.70377 6.0282 2.46055 7.18083 2.89939C8.33345 3.33823 9.0852 4.37271 9.08547 5.52036C9.08363 7.08598 7.70534 8.35513 6.00361 8.35817ZM6.00361 3.67799C4.89838 3.67799 4.00241 4.5023 4.00241 5.51913C4.00241 6.53596 4.89838 7.36027 6.00361 7.36027C7.10885 7.36027 8.00482 6.53596 8.00482 5.51913C8.00225 4.50328 7.10778 3.68035 6.00361 3.67799ZM9.20554 3.24041C8.80892 3.23906 8.48838 2.94251 8.48911 2.5776C8.48985 2.2127 8.81158 1.91725 9.20821 1.91725C9.60483 1.91725 9.92657 2.2127 9.92731 2.5776C9.92749 2.75365 9.85146 2.92252 9.71602 3.04689C9.58059 3.17126 9.3969 3.2409 9.20554 3.24041Z" fill="white"></path></svg>