<svg xmlns="http://www.w3.org/2000/svg" width="13" height="11" viewBox="0 0 13 11" fill="none"><path fill-rule="evenodd" clip-rule="evenodd" d="M3.24983 1.94984C3.24983 2.55763 2.75366 3.04951 1.97772 3.04951C1.23202 3.04951 0.735846 2.55763 0.751201 1.94984C0.735846 1.31251 1.23201 0.834961 1.99259 0.834961C2.75364 0.834961 3.23496 1.31251 3.24983 1.94984ZM0.813585 10.9978V3.91823H3.17257V10.9973H0.813585V10.9978Z" fill="white"></path><path fill-rule="evenodd" clip-rule="evenodd" d="M5.06324 6.17804C5.06324 5.29499 5.03205 4.54219 5.00085 3.91963H7.04985L7.15877 4.8895H7.20533C7.5158 4.44059 8.29173 3.76074 9.54897 3.76074C11.1008 3.76074 12.265 4.71629 12.265 6.80015V10.9992H9.90598V7.07585C9.90598 6.16327 9.5648 5.54115 8.71113 5.54115C8.059 5.54115 7.67128 5.96097 7.51628 6.36601C7.4539 6.51102 7.42319 6.71332 7.42319 6.91651V10.9992H5.06419V6.17804H5.06324Z" fill="white"></path></svg>