<svg xmlns="http://www.w3.org/2000/svg" width="14" height="10" viewBox="0 0 14 10" fill="none"><path d="M0.000684767 1.08378C0.0736108 0.770791 0.199263 0.492583 0.45399 0.283927C0.666893 0.106859 0.932109 0.0074304 1.20722 0.0015456C1.33013 -0.001932 1.45304 0.0015456 1.57595 0.0015456C5.28457 0.0015456 8.99295 0.0015456 12.7011 0.0015456C13.2325 0.0015456 13.6375 0.22446 13.8693 0.713411C13.9485 0.883933 13.9907 1.0698 13.9929 1.25835C14.0009 3.75272 14.0021 6.24732 13.9967 8.74215C13.9967 9.45263 13.4557 9.99791 12.7549 9.99826C8.92025 10.0006 5.08439 10.0006 1.24727 9.99826C0.650171 9.99826 0.172215 9.60912 0.0287596 9.0214C0.0202002 8.98663 0.00958652 8.95185 0 8.91708L0.000684767 1.08378ZM1.41778 0.840343C1.45578 0.881379 1.47393 0.901897 1.49344 0.921372C3.02729 2.47145 4.56147 4.02096 6.096 5.56988C6.17857 5.65595 6.27179 5.73076 6.37332 5.79245C6.89921 6.09743 7.46447 6.01502 7.90682 5.56849C9.43861 4.02304 10.9694 2.47656 12.4991 0.929022C12.5227 0.905027 12.544 0.878249 12.5768 0.840343H1.41778ZM1.48625 9.1546H12.4864L9.02468 5.56362C8.79152 5.81679 8.58883 6.07761 8.34609 6.29149C7.75618 6.81313 7.07485 6.93449 6.33155 6.69523C6.00766 6.59091 5.73787 6.3972 5.50095 6.15377C5.31949 5.96737 5.13872 5.77993 4.93877 5.57336L1.48625 9.1546ZM4.28312 5.02216L0.83163 1.45588V8.54497L0.862444 8.56479L4.28312 5.02216ZM13.1712 1.43188L9.67896 5.04337L13.1712 8.56897V1.43188Z" fill="white"></path></svg>