<svg xmlns="http://www.w3.org/2000/svg" width="11" height="16" viewBox="0 0 11 16" fill="none"><path d="M5.79446 0C5.94962 0.0205047 6.10545 0.036225 6.25992 0.0615141C8.14156 0.363616 9.54818 1.35126 10.393 3.05041C11.2815 4.83568 11.1838 6.62437 10.1708 8.33856C8.7984 10.6624 7.39861 12.9665 6.01045 15.2794C5.76439 15.6895 5.37685 15.6943 5.1267 15.291C3.70185 13.0009 2.27746 10.7089 0.853524 8.41511C0.182338 7.33589 -0.103361 6.1596 0.0333371 4.89925C0.166316 3.58382 0.780124 2.36374 1.7571 1.47292C2.47525 0.798122 3.36452 0.332922 4.32838 0.127812C4.60998 0.0662985 4.89909 0.0416928 5.18479 0H5.79446ZM5.55661 14.2432C5.57293 14.224 5.58822 14.2039 5.6024 14.1831C6.87574 12.0643 8.15523 9.94545 9.41901 7.81501C10.1086 6.65308 10.2556 5.41118 9.85575 4.12417C9.54094 3.12717 8.89443 2.26791 8.02368 1.68919C7.15293 1.11047 6.11036 0.847141 5.06924 0.942957C4.02811 1.03877 3.05112 1.48797 2.30062 2.21589C1.55012 2.94382 1.0713 3.90664 0.943744 4.94436C0.819349 6.0229 1.05994 7.01875 1.63202 7.93667C2.91288 9.99625 4.19305 12.0556 5.47254 14.1147C5.49851 14.1564 5.52654 14.1974 5.55661 14.2432Z" fill="white"></path><path d="M5.48278 8.22003C4.94113 8.2176 4.41235 8.05464 3.96329 7.75176C3.51423 7.44888 3.16503 7.01967 2.95984 6.51838C2.75465 6.01709 2.70268 5.46622 2.81049 4.9354C2.9183 4.40457 3.18105 3.91763 3.56554 3.5361C3.95003 3.15457 4.43899 2.89559 4.97063 2.79189C5.50227 2.68818 6.05272 2.74442 6.55241 2.95347C7.0521 3.16253 7.4786 3.51504 7.778 3.96643C8.0774 4.41782 8.23626 4.94784 8.23451 5.48949C8.23107 6.21629 7.93938 6.91203 7.42347 7.42397C6.90756 7.93591 6.20959 8.22221 5.48278 8.22003ZM5.48278 7.31031C5.84475 7.31058 6.19867 7.20348 6.49975 7.00256C6.80084 6.80165 7.03557 6.51594 7.17424 6.18159C7.31292 5.84724 7.34931 5.47927 7.27881 5.12424C7.20831 4.7692 7.03409 4.44305 6.77818 4.18706C6.52228 3.93106 6.1962 3.75672 5.84119 3.68608C5.48618 3.61545 5.1182 3.6517 4.7838 3.79025C4.4494 3.9288 4.1636 4.16342 3.96257 4.46444C3.76155 4.76545 3.65432 5.11932 3.65445 5.48129C3.65418 5.72167 3.70135 5.95974 3.79326 6.18186C3.88516 6.40398 4.02 6.60578 4.19004 6.77569C4.36008 6.9456 4.56197 7.08028 4.78416 7.17202C5.00635 7.26377 5.24445 7.31076 5.48483 7.31031H5.48278Z" fill="white"></path></svg>